<?xml version="1.0" encoding="UTF-8" standalone="no"?>
<!-- Generator: Adobe Illustrator 23.0.2, SVG Export Plug-In . SVG Version: 6.00 Build 0)  -->

<svg
   version="1.1"
   id="Layer_1"
   x="0px"
   y="0px"
   viewBox="0 0 2899.9999 2900"
   xml:space="preserve"
   sodipodi:docname="hera.svg"
   inkscape:version="1.3.1 (9b9bdc1480, 2023-11-25, custom)"
   width="2900"
   height="2900"
   xmlns:inkscape="http://www.inkscape.org/namespaces/inkscape"
   xmlns:sodipodi="http://sodipodi.sourceforge.net/DTD/sodipodi-0.dtd"
   xmlns="http://www.w3.org/2000/svg"
   xmlns:svg="http://www.w3.org/2000/svg"><defs
   id="defs1" /><sodipodi:namedview
   id="namedview1"
   pagecolor="#505050"
   bordercolor="#ffffff"
   borderopacity="1"
   inkscape:showpageshadow="0"
   inkscape:pageopacity="0"
   inkscape:pagecheckerboard="1"
   inkscape:deskcolor="#d1d1d1"
   inkscape:zoom="0.08"
   inkscape:cx="12.5"
   inkscape:cy="1037.5"
   inkscape:window-width="1366"
   inkscape:window-height="664"
   inkscape:window-x="0"
   inkscape:window-y="0"
   inkscape:window-maximized="1"
   inkscape:current-layer="Layer_1"><inkscape:page
     x="0"
     y="0"
     width="2900"
     height="2900"
     id="page1"
     margin="0"
     bleed="0" /><inkscape:page
     x="1272.4"
     y="0"
     width="2835"
     height="2835"
     id="page2"
     margin="0"
     bleed="0" /></sodipodi:namedview>


    <ellipse
   cx="1457.6174"
   cy="1445.5668"
   rx="1417.3307"
   ry="1400.1715"
   style="fill:#f0827d;stroke-width:1.33431"
   id="ellipse1-7" /><path
   d="m 1085.0418,1481.9681 c 0.7933,0.4758 1.2691,1.5863 2.6968,3.3312 -16.6563,-1.7449 -30.9333,-7.7729 -45.5272,-12.8492 -47.58963,-16.6563 -94.06853,-35.692 -136.26463,-64.2456 -49.1757,-33.154 -88.0404,-75.5087 -115.1663,-128.0156 -34.4231,-66.6252 -50.4448,-137.3748 -41.2442,-212.7248 0.3172,-2.5381 0.6346,-5.0763 0.7931,-7.6143 0.9518,-12.6905 5.0763,-16.1805 17.6081,-14.1183 20.1462,3.3313 40.1337,7.7731 59.3282,15.2288 41.4028,16.1803 80.5849,36.3265 115.0078,64.4043 11.4215,9.3593 21.8911,19.829 32.8367,34.1058 -19.1944,-7.9317 -35.3748,-14.9114 -51.8725,-21.574 -34.1057,-13.6422 -69.4806,-22.2084 -105.4899,-28.2362 -8.0902,-1.2691 -10.9456,0.1585 -10.6283,9.0419 2.8553,85.3437 32.2022,160.535 89.1509,223.9876 44.4167,49.3343 100.0963,84.7092 156.09333,119.2909 10.7869,6.8211 21.7324,13.325 32.6781,19.9875 z m -180.36393,-35.2162 c 0.4759,0.3173 0.4759,1.269 0.793,2.0622 -3.014,2.8554 -6.8211,1.9035 -10.311,1.9035 -45.6858,0.6346 -91.213,-1.4276 -135.7885,-13.0077 -59.3281,-15.2285 -106.1244,-68.2115 -102,-136.423 1.5862,-26.1742 2.6967,-52.5071 7.1384,-78.3639 0.6345,-3.4899 -0.3172,-7.9317 4.283,-9.2007 4.9176,-1.4277 6.98,2.6968 9.3593,5.8694 37.1198,50.2862 76.3017,98.8275 117.3873,145.7823 28.871,32.9953 62.9766,58.5349 102.3173,77.5707 2.3794,1.1104 4.6002,2.3796 6.8212,3.8072 z m -17.6082,402.1307 c 2.3795,0.1587 4.9176,0.6347 8.8833,1.2692 -6.3451,5.3933 -12.8491,6.9797 -19.0357,7.9316 -81.3779,13.8009 -162.5973,18.7183 -242.8646,-7.6145 -39.0235,-12.849 -72.336,-35.8506 -105.3315,-59.6453 -23.7946,-16.9736 -43.465,-38.2303 -60.7558,-62.1836 -4.4417,-6.1867 -4.9176,-9.6765 3.1727,-13.6423 38.706,-18.7184 78.6812,-33.154 120.7186,-41.4028 2.8552,-0.6345 6.3452,-1.745 7.7728,1.5864 1.5863,3.4898 -2.3795,4.9174 -4.4416,6.5038 -16.3391,13.3251 -32.9954,26.6501 -49.4931,39.9752 -3.6484,3.0139 -6.6626,5.3934 -0.9518,9.835 57.9006,46.1619 121.5118,80.9022 194.7994,95.4962 49.0173,9.9938 97.7171,19.8289 147.5273,21.8911 z m 480.33623,-128.0155 c -6.8212,0 -10.6284,-3.1727 -14.2768,-5.8694 -35.6922,-26.0156 -75.0328,-45.3685 -115.4838,-62.5009 -39.4993,-16.6561 -81.378,-25.5396 -124.0498,-30.933 -71.8601,-8.8834 -144.03743,-12.3732 -216.21473,-17.9255 -41.5613,-3.1726 -80.4261,-16.6563 -118.9736,-32.3607 -30.6159,-12.5318 -59.1696,-28.2365 -86.7714,-46.4789 -3.014,-1.9038 -6.6625,-6.8213 -10.1524,-3.9658 -4.1246,3.3311 -0.6345,8.2488 1.1105,12.0559 15.863,36.168 39.6577,67.2597 61.3902,99.7792 47.5894,71.3841 112.787,119.6081 193.0546,147.8446 35.0575,12.3732 71.70143,17.1322 108.50383,19.5115 29.8228,2.0623 59.6455,4.2831 89.4682,2.0623 -75.5085,20.7807 -151.01713,26.65 -228.58793,10.1523 -78.364,-16.8149 -143.5615,-55.521 -198.7653,-111.2006 -72.3359,-72.9705 -108.5038,-162.2799 -111.5179,-265.0731 -0.3172,-13.1664 -0.9517,-26.3329 0.6346,-39.3407 0.3173,-2.0621 1.1103,-4.1243 2.2208,-8.2488 12.3732,12.8491 24.4292,24.2706 36.4853,35.5334 40.6096,37.5958 88.9923,55.997 143.7201,59.6455 69.1633,4.6003 138.4852,8.5661 207.1726,19.5118 53.30023,8.5659 106.75913,16.4975 158.79023,32.0435 32.2021,9.5178 59.4867,28.2363 85.5023,48.0653 46.0031,35.2161 85.0264,77.8881 123.0981,121.353 4.6003,5.0762 8.566,10.1524 13.6423,16.3391 z m 33.6298,31.5676 c -6.8212,8.8833 -13.9595,12.6905 -20.3048,17.4494 -6.504,4.7591 -13.0078,9.518 -19.829,13.6424 -45.5273,27.6019 -91.3717,54.8864 -138.9612,78.9984 -28.5537,14.4355 -58.5348,22.3671 -90.1026,25.3812 -5.3934,0.4758 -10.9457,0.9516 -16.339,1.7449 -2.3795,0.3172 -5.7107,-0.1587 -6.3453,3.0139 -0.6345,2.5382 2.0622,3.6485 3.6486,4.9177 23.1601,18.2426 48.6997,31.5676 77.0948,40.2923 63.4526,19.6703 115.4837,-3.6485 163.2319,-42.196 33.1538,-26.8087 59.0109,-60.5972 83.4401,-95.4961 1.4276,-2.0622 3.014,-3.9658 5.8693,-7.7729 6.1867,36.9611 -1.5863,68.5287 -20.7808,97.2411 -25.5396,38.2301 -55.3623,72.3359 -95.6548,96.448 -28.5536,16.9734 -59.9626,24.429 -92.0061,30.4571 -68.5288,12.6906 -129.9192,-7.773 -187.9783,-42.0373 -20.7808,-12.3732 -37.2784,-29.5055 -49.01713,-50.6034 -9.3594,-16.815 -17.4495,-34.4231 -26.3329,-51.714 -3.9656,-7.6142 -1.745,-10.6282 6.6625,-10.6282 20.7807,0 41.72013,0 62.50083,-0.6346 60.1215,-1.5862 117.7046,-15.8631 174.6532,-34.1057 60.5973,-19.5116 119.4496,-43.1479 177.1914,-70.1152 2.0623,-0.9517 4.4417,-2.0621 9.3593,-4.283 z m 559.4931,106.1244 c 3.9658,5.3935 -2.2208,11.8974 -5.5521,16.4978 -28.5536,40.2923 -56.3141,81.6951 -98.8274,108.8212 -41.5615,26.4914 -87.4059,39.9751 -137.2161,37.9128 -20.7808,-0.7931 -41.7201,-0.3173 -62.1836,-4.1243 -51.3967,-9.3594 -92.1648,-37.4371 -127.0637,-74.8741 -22.2085,-23.9533 -38.2302,-51.5551 -46.479,-83.2815 -6.0281,-23.0016 -2.0623,-45.686 2.538,-69.322 5.5522,2.0622 9.5179,5.2348 11.4214,9.3593 13.4837,31.2503 39.0233,52.3483 61.2319,76.4603 37.7542,41.0856 84.2332,57.7419 139.5955,54.5692 34.7404,-1.9035 68.3702,-5.8694 99.3033,-23.1601 3.014,-1.745 8.2489,-2.3795 7.6144,-6.504 -0.6346,-3.9656 -5.7108,-3.9656 -9.2007,-4.6003 -68.0528,-12.5318 -128.4915,-42.1959 -184.8055,-81.5365 -25.2224,-17.6082 -49.3343,-36.3267 -71.8601,-57.4246 -1.745,-1.745 -4.283,-3.014 -4.1244,-7.9316 12.3733,4.4417 24.2705,8.2488 35.8507,13.0078 54.8865,22.2084 108.3452,47.5894 164.3421,67.1011 67.5769,23.6361 136.5817,37.5956 208.759,27.6019 5.5521,-0.7931 13.6423,-2.6968 16.6563,1.4276 z m 81.378,-4.4416 c -2.0622,-0.6345 -3.9658,-1.4276 -5.8694,-2.2209 0,-0.9518 0.1587,-1.9036 0.1587,-3.014 14.7527,-1.1103 29.6641,-2.3794 44.4168,-3.1726 64.2457,-3.4899 126.7465,-16.0217 187.5024,-36.8025 32.8367,-11.2627 60.2799,-32.6781 89.1508,-51.0793 12.6906,-8.0902 23.4775,-18.5598 34.5817,-28.5537 6.6625,-5.8693 6.1866,-10.4696 -0.4759,-15.8632 -16.8149,-13.3249 -33.4712,-27.1258 -50.1275,-40.7682 -2.8554,-2.2209 -6.028,-4.1244 -7.773,-8.5662 3.9658,-1.5863 7.4557,-0.1585 11.1042,0.9519 40.9269,12.056 78.0467,32.8366 116.5941,50.2862 5.8694,2.6967 9.042,5.7107 3.8072,12.2145 -23.3188,28.5537 -46.479,57.1074 -75.0327,81.0608 -49.0171,40.927 -106.6003,59.4868 -168.6252,62.6595 -60.5972,3.3312 -121.0358,0.7931 -179.4122,-17.1323 z M 2360.756,1372.671 c 5.0762,1.9036 2.6968,8.4075 2.5381,12.8492 -3.9657,84.5506 -24.2706,164.1835 -70.4323,236.5195 -37.5957,58.8522 -84.0747,108.6625 -143.2442,145.465 -55.3624,34.423 -115.801,54.0934 -181.9504,56.6315 -40.451,1.5862 -80.2675,0 -119.6081,-9.0421 -1.7449,-0.3172 -3.6485,-0.793 -5.2348,-1.4276 -0.6345,-0.1587 -0.9518,-0.9518 -2.2209,-2.2209 21.4153,-2.3794 42.196,-5.0762 62.9767,-6.8211 73.6051,-6.3453 139.5958,-33.3126 199.3998,-75.6672 24.5879,-17.4495 43.465,-40.9269 62.3422,-64.4044 26.4914,-32.9953 46.479,-69.9564 66.9425,-106.6003 4.283,-7.6143 9.8351,-14.5941 12.0559,-23.3189 0.4759,-2.0622 1.5864,-4.4416 -0.7931,-5.8694 -2.0622,-1.269 -3.1726,0.9518 -4.6003,1.9037 -57.7419,38.8647 -122.9394,57.7418 -190.1991,71.7014 -66.4666,13.8009 -133.7264,18.0839 -201.3034,20.622 -88.675,3.4899 -170.846,28.871 -247.3065,73.6051 -9.0419,5.2348 -18.0839,10.311 -27.1258,15.5458 -0.6345,-0.7932 -1.2691,-1.4276 -1.9037,-2.2208 17.7668,-23.0016 36.3267,-45.21 57.2659,-65.6736 46.6378,-45.8444 103.745,-75.1911 161.4869,-103.5862 42.8305,-21.098 89.4681,-28.0778 136.1058,-35.0575 68.8461,-10.311 138.3266,-9.8351 207.3313,-17.6081 37.2784,-4.1244 74.0809,-10.9456 108.028,-26.4914 42.196,-19.1946 79.633,-45.8445 110.5662,-80.9021 2.6967,-3.014 4.4417,-9.6766 8.8833,-7.9316 z m -65.0389,-155.7761 c 0.3173,25.0638 4.4417,50.1276 0,75.35 -3.1726,17.4495 -1.1104,35.6921 -3.4899,53.4587 -5.7107,42.6719 -31.7262,68.5288 -68.0528,87.2474 -39.182,20.1462 -81.0607,21.7325 -123.7326,20.6221 -20.7807,-0.4759 -41.5614,-0.1587 -62.3422,-0.3174 -3.4898,0 -7.1384,1.2692 -10.9455,-1.4276 9.6765,-12.5318 25.0637,-15.7045 37.7543,-22.5257 43.6236,-23.3187 85.0264,-49.493 119.2908,-85.8196 37.5957,-39.975 70.4324,-83.5987 101.3655,-128.8087 1.745,-2.538 2.3795,-7.297 6.5039,-6.1866 3.6485,0.9518 3.4899,5.3935 3.6485,8.4074 z m -453.686,272.3702 c 21.5739,-13.8009 45.5273,-22.0497 66.7839,-35.692 46.7963,-30.14 95.3375,-58.3764 135.9472,-97.2411 40.1337,-38.2303 68.846,-84.3919 84.0746,-137.6922 7.9316,-27.919 12.2147,-57.1073 12.056,-86.6126 0,-8.5661 -2.8553,-10.6285 -11.4214,-11.1043 -44.8927,-2.3794 -86.7714,9.3593 -127.857,25.0638 -3.1726,1.2691 -6.1866,3.8072 -10.9456,2.0622 17.2909,-19.1944 39.3407,-30.4573 61.549,-41.0855 40.927,-19.3531 81.8539,-38.7061 124.3671,-54.252 3.8072,-1.4276 7.4557,-2.8553 11.2628,-3.9658 17.4495,-5.2348 17.6081,-5.2348 20.4635,13.6422 15.2286,101.5243 -9.2006,190.9923 -80.5848,266.1838 -43.7823,46.1616 -95.972,80.2675 -152.6035,108.6623 -41.8787,20.9395 -85.5023,37.2786 -130.0778,51.5554 -0.9518,0.6345 -2.0622,0.4758 -3.014,0.4758 z m -126.9052,47.1136 c -0.9517,0.6345 -1.9035,1.1105 -2.8553,1.4276 -0.6346,0.1587 -1.269,-0.3171 -3.8072,-0.9516 15.2286,-19.9876 29.6641,-39.3408 44.5755,-58.5352 32.0436,-41.4027 62.3421,-83.916 82.9642,-132.2986 16.0218,-37.7542 26.1742,-77.5706 29.9814,-118.4976 3.4899,-38.8647 -5.7108,-76.3018 -22.0498,-111.518 -17.9253,-38.8647 -39.4993,-75.8258 -65.1975,-110.0902 -4.1244,-5.5519 -9.042,-10.46959 -13.6423,-15.70449 -14.4356,-15.8631 -14.5942,-16.1804 -33.9472,-6.028 -25.8569,13.6424 -51.2379,28.07779 -77.5707,45.52719 6.9798,-22.5257 19.5117,-39.02319 31.2503,-55.52089 21.5739,-30.2986 43.6237,-60.27999 70.2738,-86.45415 5.2348,-5.23491 9.9938,-5.86945 15.07,-1.745 26.6501,21.41527 56.6314,39.81645 74.7154,69.95645 27.9191,46.47909 52.1897,94.54429 64.7216,147.84449 7.773,32.8368 12.8492,65.9907 13.6423,99.6206 1.1105,44.8926 -9.2006,87.8818 -27.1259,128.65 -38.2302,87.7233 -100.0965,154.5071 -180.9986,204.3174 z m 36.9612,-264.4386 c 9.9937,60.9144 0.476,120.4012 -27.7605,175.6048 -32.3609,63.2941 -71.3842,122.3049 -118.4977,175.7639 -13.9595,15.8631 -30.14,29.5054 -46.479,42.9891 6.028,-10.9456 15.07,-19.6703 22.5257,-29.6642 19.6703,-26.65 32.3608,-57.1073 47.7481,-85.9782 31.4091,-59.4868 41.0855,-123.5739 39.6579,-189.7232 -0.6346,-30.9331 -8.5662,-60.5972 -21.2567,-88.8336 -21.4153,-47.7481 -51.7139,-89.7854 -86.2955,-128.65 -23.9534,-26.9673 -49.4931,-52.6657 -75.8259,-77.4123 -6.1866,-5.7108 -10.4696,-5.8693 -16.4976,-0.4759 -40.1338,36.6439 -82.8057,70.7496 -118.815,111.518 -54.4106,61.7076 -87.406,133.0918 -86.2955,216.6905 0.9518,62.9767 17.7666,121.9876 48.6998,177.6672 23.0016,41.2442 51.0794,78.0467 82.9643,112.3112 0.7931,0.793 1.2691,1.7449 1.9036,2.5381 -42.6719,-29.1883 -77.095,-66.4667 -105.9659,-108.9799 -18.2425,-26.8088 -39.0233,-52.1898 -53.4588,-81.378 -15.3872,-30.933 -35.5334,-60.1212 -41.2441,-95.0201 -6.9798,-43.6237 -12.056,-87.7231 -4.1244,-131.6642 5.0761,-28.7123 16.9734,-55.3623 32.2021,-79.9502 26.4915,-42.8306 55.0451,-84.5506 92.0063,-119.2909 36.3266,-34.2643 75.8257,-64.8802 115.3251,-95.49609 12.3731,-9.5179 25.2224,-18.5599 37.2784,-28.7123 4.9176,-4.1243 8.566,-3.8072 13.4837,-0.7931 28.5536,17.1322 55.6796,36.1679 81.0606,57.74179 38.3888,32.5195 78.364,63.9285 108.6626,104.6968 36.961,49.8102 68.8459,102.7931 78.9984,164.5008 z m -457.1758,-242.2303 c -23.9534,-8.8833 -44.8928,-23.0015 -66.9425,-35.21609 -31.4091,-17.2908 -22.0498,-19.9876 -47.5895,6.66249 -44.8927,46.6377 -77.2535,101.2069 -96.4479,162.4386 -26.6502,84.8679 -11.2628,164.5008 39.4992,237.154 18.4013,26.3328 37.9129,51.8725 55.2038,78.9985 9.9938,15.5459 22.6843,29.5054 33.9471,44.2581 2.3794,3.3313 6.0279,6.3453 5.8694,12.2147 -15.3873,-6.8212 -27.2847,-17.7668 -39.4992,-27.4432 -46.3204,-37.1198 -85.6611,-79.7918 -113.5802,-133.0919 -16.815,-32.2022 -32.8367,-63.9285 -39.3407,-100.255 -9.2006,-50.4449 -6.821,-99.9378 6.3453,-149.4309 22.2085,-83.1228 61.2319,-157.20369 117.07,-222.5599 6.6626,-7.77297 13.6423,-15.0699 22.0498,-21.25657 2.8555,-2.06222 4.759,-3.80723 8.2488,-0.63454 46.1618,43.46512 85.3438,92.00632 115.1666,148.16171 z"
   id="path1"
   style="stroke-width:1.58632" /><ellipse
   cx="1453.3459"
   cy="1412.6365"
   rx="1203.481"
   ry="1174.1754"
   style="fill:none;stroke:#000000;stroke-width:60;stroke-dasharray:none;stroke-opacity:1"
   id="ellipse2-5" />
</svg>
